<svg xmlns="http://www.w3.org/2000/svg" viewBox="0 0 331.7 80.34"><title>Asset 2</title><path d="M47.27,61H27.57a13.31,13.31,0,0,1-4.41-.65q-2.26-.86-2.26-5V.86H0v62q0,8.62,5,12.71T17.88,79.7H36l.94-1.56Z" style="fill:#fff"/><polygon points="108.1 0.86 84.94 0.86 73.64 22.73 62.33 0.86 39.17 0.86 63.08 40.6 39.5 79.7 62.65 79.7 73.64 58.59 84.41 79.7 107.56 79.7 84.08 40.6 108.1 0.86" style="fill:#fff"/><path d="M160.89,20.57a120.92,120.92,0,0,0-19.66-1.83q-8.67,0-10.61,1.19-4.52,2.69-4.52,20.36,0,13.36,2.42,17.34t10.5,4q11.2,0,18.85-.65l3-.32V76.9a39.63,39.63,0,0,1-10.34,2.8,83.52,83.52,0,0,1-10.34.65h-7.75q-14.65-.22-20.95-10.07t-6.3-30.15q0-20.3,6-30.21T132.46,0a114.27,114.27,0,0,1,16.21.81,66.65,66.65,0,0,1,12.22,3.5Z" style="fill:#fff"/><rect x="179.52" y="0.75" width="2.75" height="78.84" style="fill:#23accf"/><path d="M200.09.82h2.77l9.92,28,8.91-28h2.81L221,12.1,227.31,29,236.39.82h2.72L228.71,33H226l-6.37-16.72L214.14,33h-2.68Z" style="fill:#fff"/><path d="M244.94,27.56v-21q0-3,1.51-4.37A5.34,5.34,0,0,1,250.12.82h.35L264,1.44V3.33H250.47a2.91,2.91,0,0,0-2.37.81,3.73,3.73,0,0,0-.66,2.39V15.7l14.84.35V18l-14.84.35v9.22q0,2.06,1.14,2.63a5.73,5.73,0,0,0,2.33.4H264v1.84l-13.12.66H250a8,8,0,0,1-1.4-.15,5.64,5.64,0,0,1-1.76-.68Q244.94,31.11,244.94,27.56Z" style="fill:#fff"/><path d="M270.88,33V.82h11.94q6.32,0,7.9,5.27a9.7,9.7,0,0,1,.44,3A8.6,8.6,0,0,1,290,13.73a5.51,5.51,0,0,1-3.4,2.5,5.77,5.77,0,0,1,3.25,2.39A8.79,8.79,0,0,1,291.29,24a10.83,10.83,0,0,1-1.67,6.14Q287.69,33,282.82,33ZM288.66,8.9q0-5.57-5.84-5.57h-9.44V14.87h9.44a5.88,5.88,0,0,0,4.28-1.51A5.94,5.94,0,0,0,288.66,8.9ZM273.38,30.45h9.44q6,0,6-6.54a6.94,6.94,0,0,0-1.6-4.65,5.38,5.38,0,0,0-4.32-1.89h-9.48Z" style="fill:#fff"/><path d="M200.84,79.59V47.46H213.7q4.08,0,6,2.5,1.71,2.24,1.71,6.63,0,8.08-4.78,9.26a11.21,11.21,0,0,1-2.72.31q-1.49,0-5.93-.33t-4.61-.42V79.59Zm2.5-16H213.7a5.35,5.35,0,0,0,3.55-1.14q1.58-1.4,1.58-5.75,0-4.87-2.46-6.15A5.75,5.75,0,0,0,213.7,50H203.34Z" style="fill:#fff"/><path d="M223.72,79.59l11.9-32.13h2.68l11.32,32.13h-2.94l-3.16-9.7H230.08l-3.34,9.7ZM231,67.39h11.63L236.93,51.1Z" style="fill:#fff"/><path d="M256,79.59V47.46h2.55l17.86,27.43V47.46h2.5V79.59h-2.5L258.53,52.16V79.59Z" style="fill:#fff"/><path d="M286.84,74.19v-21q0-3,1.51-4.37A5.34,5.34,0,0,1,292,47.46h.35l13.56.61V50H292.37a2.92,2.92,0,0,0-2.37.81,3.73,3.73,0,0,0-.66,2.39v9.17l14.84.35v1.93L289.34,65v9.22q0,2.06,1.14,2.63a5.73,5.73,0,0,0,2.33.4h13.12v1.84l-13.12.66h-.92a8.06,8.06,0,0,1-1.4-.15,5.64,5.64,0,0,1-1.76-.68Q286.84,77.75,286.84,74.19Z" style="fill:#fff"/><path d="M312.78,74.06V47.46h2.5v26.6q0,2.06,1.14,2.63a5.75,5.75,0,0,0,2.33.39H331.7v2.5H318.75q-4.39,0-5.49-2.59A7.81,7.81,0,0,1,312.78,74.06Z" style="fill:#fff"/></svg>