<svg xmlns="http://www.w3.org/2000/svg" viewBox="0 0 265.88 214.17"><title>Asset 1</title><path d="M78.12,100.74H45.56a22,22,0,0,1-7.3-1.07q-3.74-1.42-3.74-8.19V1.42H0V103.94q0,14.24,8.19,21t21.36,6.76H59.43L61,129.12Z" style="fill:#fff"/><polygon points="178.65 1.42 140.38 1.42 121.69 37.55 103 1.42 64.74 1.42 104.25 67.1 65.27 131.71 103.54 131.71 121.69 96.82 139.49 131.71 177.75 131.71 138.96 67.1 178.65 1.42" style="fill:#fff"/><path d="M265.88,34a200,200,0,0,0-32.48-3q-14.33,0-17.53,2-7.48,4.45-7.47,33.64,0,22.07,4,28.66t17.36,6.58q18.51,0,31.15-1.07l5-.53v26.88a65.34,65.34,0,0,1-17.09,4.63,137.66,137.66,0,0,1-17.09,1.07H218.9q-24.21-.36-34.62-16.64T173.87,66.3q0-33.55,9.88-49.92T218.9,0q18.51,0,26.79,1.33a110,110,0,0,1,20.2,5.79Z" style="fill:#fff"/><path d="M.09,178.5H4l10.34,29.26,8.79-29.26h4.08l-3.3,11.36,6.45,18.2,9.08-29.56h3.93L32.26,214H28.67L22,195.88,16.15,214H12.56Z" style="fill:#fff"/><path d="M49.07,184.81q0-3.35,1.67-4.83a6,6,0,0,1,4.15-1.48h.29l15.34.78v2.81H55.18a2.89,2.89,0,0,0-1.77.46,1.55,1.55,0,0,0-.68.92,9.14,9.14,0,0,0-.07,1.33v9.71l15.92.49v2.86l-15.92.49v9.71a2.59,2.59,0,0,0,.53,1.8,1.84,1.84,0,0,0,1,.66,10.61,10.61,0,0,0,1.46.07H70.52v2.77l-14.85.83h-.73q-5.87,0-5.87-6.12Z" style="fill:#fff"/><path d="M77.29,214V178.5H91q4.8,0,7,2.81a10.11,10.11,0,0,1,2.21,6.41q0,6.46-4.46,7.86a5.51,5.51,0,0,1,3.25,2.6,10.81,10.81,0,0,1,1.41,5.95,11.61,11.61,0,0,1-1.89,6.79Q96.31,214,91,214Zm3.64-20.38H91q5.63,0,5.63-5.78T91,182.09h-10Zm0,16.79H91q5.82,0,5.82-6.41a7.86,7.86,0,0,0-1.46-4.85A5.11,5.11,0,0,0,91,197.23h-10Z" style="fill:#fff"/><path d="M120.87,214V178.5h14.61q8.49,0,8.49,10.29,0,8-4,9.9a8.47,8.47,0,0,1-2.23.73,15.9,15.9,0,0,1-2.33.15q-1.36,0-6.07-.44t-4.9-.53V214ZM124.46,196h11a4.57,4.57,0,0,0,3.59-1.41q1.26-1.41,1.26-5.78t-1.89-5.73a5,5,0,0,0-3-.92h-11Z" style="fill:#fff"/><path d="M146,214,159,178.5h3.59L175.09,214h-4.27l-3.06-9.9H153.59l-3.2,9.9Zm8.93-13.49h11.6L160.78,184Z" style="fill:#fff"/><path d="M181.43,214V178.5h3.69L204,207.33V178.5h3.59V214H204l-19-28.83V214Z" style="fill:#fff"/><path d="M215.58,184.81q0-3.35,1.67-4.83a6,6,0,0,1,4.15-1.48h.29l15.34.78v2.81H221.69a2.89,2.89,0,0,0-1.77.46,1.55,1.55,0,0,0-.68.92,9.11,9.11,0,0,0-.07,1.33v9.71l15.92.49v2.86l-15.92.49v9.71a2.59,2.59,0,0,0,.53,1.8,1.84,1.84,0,0,0,1,.66,10.61,10.61,0,0,0,1.46.07H237v2.77l-14.85.83h-.73q-5.87,0-5.87-6.12Z" style="fill:#fff"/><path d="M243.8,207.91V178.5h3.59v29.41q0,1.85,1,2.23a5.73,5.73,0,0,0,2,.29h14.85V214H250.4a9,9,0,0,1-4.46-1Q243.79,211.84,243.8,207.91Z" style="fill:#fff"/><rect x="0.24" y="153.33" width="265.09" height="3" style="fill:#23accf"/></svg>